<svg xmlns="http://www.w3.org/2000/svg" width="26" height="26" viewBox="0 0 26 26"><g transform="translate(0 -1026.362)"><circle cx="13" cy="1039.362" r="13" fill="#1d67b1"/><path fill="#154082" style="line-height:normal;text-indent:0;text-align:start;text-decoration-line:none;text-decoration-style:solid;text-decoration-color:#000;text-transform:none;block-progression:tb;isolation:auto;mix-blend-mode:normal" d="M 10.798828 25.798828 A 12.999996 12.999996 0 0 0 11.703125 25.935547 A 12.999996 12.999996 0 0 0 13 26 A 12.999996 12.999996 0 0 0 13.919922 25.966797 A 12.999996 12.999996 0 0 0 15.208984 25.810547 A 12.999996 12.999996 0 0 0 16.476562 25.525391 A 12.999996 12.999996 0 0 0 17.710938 25.117188 A 12.999996 12.999996 0 0 0 18.896484 24.585938 A 12.999996 12.999996 0 0 0 20.023438 23.939453 A 12.999996 12.999996 0 0 0 21.080078 23.183594 A 12.999996 12.999996 0 0 0 22.056641 22.326172 A 12.999996 12.999996 0 0 0 22.943359 21.375 A 12.999996 12.999996 0 0 0 23.728516 20.339844 A 12.999996 12.999996 0 0 0 24.408203 19.232422 A 12.999996 12.999996 0 0 0 24.974609 18.0625 A 12.999996 12.999996 0 0 0 25.419922 16.841797 A 12.999996 12.999996 0 0 0 25.740234 15.582031 A 12.999996 12.999996 0 0 0 25.935547 14.296875 A 12.999996 12.999996 0 0 0 26 13 A 12.999996 12.999996 0 0 0 25.966797 12.080078 A 12.999996 12.999996 0 0 0 25.8125 10.8125 L 21 6 L 5 6 L 5 6.5 L 5 19 L 6 20 L 6 21 L 10.798828 25.798828 z " color="#000" font-family="sans-serif" font-weight="400" transform="translate(0 1026.362)" white-space="normal"/><path fill="#fff" style="line-height:normal;text-indent:0;text-align:start;text-decoration-line:none;text-decoration-style:solid;text-decoration-color:#000;text-transform:none;block-progression:tb;isolation:auto;mix-blend-mode:normal" d="m 0,1 0,0.5 0,12.5 1,0 0,2 4,0 0,-2 6,0 0,2 4,0 0,-2 1,0 L 16,1 0,1 Z M 1,2 15,2 15,5 1,5 1,2 Z M 2.5,3 A 0.5,0.5 0 0 0 2,3.5 0.5,0.5 0 0 0 2.5,4 0.5,0.5 0 0 0 3,3.5 0.5,0.5 0 0 0 2.5,3 Z m 7,0 A 0.5,0.5 0 0 0 9,3.5 0.5,0.5 0 0 0 9.5,4 0.5,0.5 0 0 0 10,3.5 0.5,0.5 0 0 0 9.5,3 Z m 2,0 A 0.5,0.5 0 0 0 11,3.5 0.5,0.5 0 0 0 11.5,4 0.5,0.5 0 0 0 12,3.5 0.5,0.5 0 0 0 11.5,3 Z m 2,0 A 0.5,0.5 0 0 0 13,3.5 0.5,0.5 0 0 0 13.5,4 0.5,0.5 0 0 0 14,3.5 0.5,0.5 0 0 0 13.5,3 Z M 1,6 15,6 15,9 1,9 1,6 Z M 2.5,7 A 0.5,0.5 0 0 0 2,7.5 0.5,0.5 0 0 0 2.5,8 0.5,0.5 0 0 0 3,7.5 0.5,0.5 0 0 0 2.5,7 Z m 7,0 A 0.5,0.5 0 0 0 9,7.5 0.5,0.5 0 0 0 9.5,8 0.5,0.5 0 0 0 10,7.5 0.5,0.5 0 0 0 9.5,7 Z m 2,0 A 0.5,0.5 0 0 0 11,7.5 0.5,0.5 0 0 0 11.5,8 0.5,0.5 0 0 0 12,7.5 0.5,0.5 0 0 0 11.5,7 Z m 2,0 A 0.5,0.5 0 0 0 13,7.5 0.5,0.5 0 0 0 13.5,8 0.5,0.5 0 0 0 14,7.5 0.5,0.5 0 0 0 13.5,7 Z M 1,10 l 14,0 0,3 -14,0 0,-3 z m 1.5,1 A 0.5,0.5 0 0 0 2,11.5 0.5,0.5 0 0 0 2.5,12 0.5,0.5 0 0 0 3,11.5 0.5,0.5 0 0 0 2.5,11 Z m 7,0 A 0.5,0.5 0 0 0 9,11.5 0.5,0.5 0 0 0 9.5,12 0.5,0.5 0 0 0 10,11.5 0.5,0.5 0 0 0 9.5,11 Z m 2,0 A 0.5,0.5 0 0 0 11,11.5 0.5,0.5 0 0 0 11.5,12 0.5,0.5 0 0 0 12,11.5 0.5,0.5 0 0 0 11.5,11 Z m 2,0 A 0.5,0.5 0 0 0 13,11.5 0.5,0.5 0 0 0 13.5,12 0.5,0.5 0 0 0 14,11.5 0.5,0.5 0 0 0 13.5,11 Z M 2,14 l 2,0 0,1 -2,0 0,-1 z m 10,0 2,0 0,1 -2,0 0,-1 z" color="#000" font-family="sans-serif" font-weight="400" overflow="visible" transform="translate(5 1031.362)" white-space="normal"/></g></svg>